<?xml version="1.0" encoding="UTF-8"?>
<svg width="108px" height="108px" viewBox="0 0 108 108" version="1.1" xmlns="http://www.w3.org/2000/svg" xmlns:xlink="http://www.w3.org/1999/xlink">
    <!-- Generator: Sketch 49.2 (51160) - http://www.bohemiancoding.com/sketch -->
    <title>Code, Data, Programming, Script, Document, File</title>
    <desc>Created with Sketch.</desc>
    <defs>
        <circle id="path-1" cx="50" cy="50" r="50"></circle>
        <filter x="-7.0%" y="-5.0%" width="114.0%" height="114.0%" filterUnits="objectBoundingBox" id="filter-2">
            <feOffset dx="0" dy="2" in="SourceAlpha" result="shadowOffsetOuter1"></feOffset>
            <feGaussianBlur stdDeviation="2" in="shadowOffsetOuter1" result="shadowBlurOuter1"></feGaussianBlur>
            <feColorMatrix values="0 0 0 0 0.607892215   0 0 0 0 0.607803345   0 0 0 0 0.607922554  0 0 0 1 0" type="matrix" in="shadowBlurOuter1"></feColorMatrix>
        </filter>
    </defs>
    <g id="Web" stroke="none" stroke-width="1" fill="none" fill-rule="evenodd">
        <g id="Candidate-Registration-(Add-Experience)" transform="translate(-666.000000, -2274.000000)">
            <g id="Skills-Card" transform="translate(120.000000, 2276.000000)">
                <g id="Code,-Data,-Programming,-Script,-Document,-File" transform="translate(550.000000, 0.000000)">
                    <g id="Oval-4-Copy">
                        <use fill="black" fill-opacity="1" filter="url(#filter-2)" xlink:href="#path-1"></use>
                        <use fill="#FFFFFF" fill-rule="evenodd" xlink:href="#path-1"></use>
                    </g>
                    <g id="Слой_1" transform="translate(25.000000, 17.000000)" fill-rule="nonzero">
                        <polygon id="Shape" fill="#EEC53D" points="29.787234 1.06451613 1.06382979 1.06451613 1.06382979 64.9354839 48.9361702 64.9354839 48.9361702 20.2258065"></polygon>
                        <g id="Group" opacity="0.2" transform="translate(29.787234, 1.064516)" fill="#100D11">
                            <polygon id="Shape" points="0 19.1612903 19.1489362 19.1612903 0 0"></polygon>
                        </g>
                        <path d="M48.9361702,65.5741935 L1.06382979,65.5741935 C0.691489362,65.5741935 0.425531915,65.2548387 0.425531915,64.9354839 L0.425531915,1.06451613 C0.425531915,0.691935484 0.744680851,0.425806452 1.06382979,0.425806452 L27.6595745,0.425806452 C30.9574468,0.425806452 33.6170213,3.08709677 33.6170213,6.38709677 L33.6170213,16.3935484 L43.6170213,16.3935484 C46.9148936,16.3935484 49.5744681,19.0548387 49.5744681,22.3548387 L49.5744681,64.9354839 C49.5744681,65.3080645 49.3085106,65.5741935 48.9361702,65.5741935 Z M1.70212766,64.2967742 L48.2446809,64.2967742 L48.2446809,22.3548387 C48.2446809,19.8 46.1702128,17.6709677 43.5638298,17.6709677 L32.9787234,17.6709677 C32.606383,17.6709677 32.3404255,17.3516129 32.3404255,17.0322581 L32.3404255,6.38709677 C32.3404255,3.83225806 30.2659574,1.70322581 27.6595745,1.70322581 L1.70212766,1.70322581 L1.70212766,64.2967742 Z" id="Shape" fill="#373636"></path>
                        <path d="M31.3829787,2.60806452 C32.3404255,3.56612903 32.9787234,4.89677419 32.9787234,6.38709677 L32.9787234,17.0322581 L43.6170213,17.0322581 C45.0531915,17.0322581 46.3829787,17.6177419 47.3404255,18.5758065 L31.3829787,2.60806452 Z" id="Shape" fill="#5D5C5A"></path>
                        <path d="M47.3404255,19.2145161 C47.1808511,19.2145161 46.9680851,19.1612903 46.8617021,19.0016129 C45.9574468,18.15 44.8404255,17.6709677 43.5638298,17.6709677 L32.9787234,17.6709677 C32.606383,17.6709677 32.3404255,17.3516129 32.3404255,17.0322581 L32.3404255,6.38709677 C32.3404255,5.10967742 31.8617021,3.93870968 30.9574468,3.08709677 C30.8510638,2.98064516 30.7446809,2.76774194 30.7446809,2.60806452 C30.7446809,2.34193548 30.9042553,2.07580645 31.1702128,1.96935484 C31.4361702,1.86290323 31.7021277,1.91612903 31.9148936,2.12903226 L47.8723404,18.0967742 C48.0851064,18.3096774 48.1382979,18.5758065 48.0319149,18.8419355 C47.8723404,19.0548387 47.606383,19.2145161 47.3404255,19.2145161 Z M33.6170213,16.3935484 L43.6170213,16.3935484 C43.8297872,16.3935484 44.0425532,16.3935484 44.2553191,16.4467742 L33.6170213,5.8016129 C33.6170213,6.01451613 33.6702128,6.22741935 33.6702128,6.44032258 L33.6702128,16.3935484 L33.6170213,16.3935484 Z" id="Shape" fill="#373636"></path>
                        <g id="Group" transform="translate(11.702128, 29.274194)" fill="#FFFFFF">
                            <polygon id="Shape" points="9.04255319 17.6709677 0.425531915 9.0483871 9.04255319 0.425806452 11.2765957 2.66129032 4.89361702 9.0483871 11.2765957 15.4354839"></polygon>
                            <polygon id="Shape" points="17.5531915 17.6709677 15.3191489 15.4354839 21.7021277 9.0483871 15.3191489 2.66129032 17.5531915 0.425806452 26.1702128 9.0483871"></polygon>
                        </g>
                    </g>
                </g>
            </g>
        </g>
    </g>
</svg>