<?xml version="1.0" encoding="UTF-8"?>
<svg width="110px" height="110px" viewBox="0 0 110 110" version="1.1" xmlns="http://www.w3.org/2000/svg" xmlns:xlink="http://www.w3.org/1999/xlink">
    <!-- Generator: Sketch 49.2 (51160) - http://www.bohemiancoding.com/sketch -->
    <title>Email</title>
    <desc>Created with Sketch.</desc>
    <defs></defs>
    <g id="Web" stroke="none" stroke-width="1" fill="none" fill-rule="evenodd">
        <g id="Candidate-Registration-(4)" transform="translate(-677.000000, -250.000000)">
            <g id="Email" transform="translate(677.000000, 250.000000)">
                <g id="email">
                    <g id="S8-/-S8+-icons">
                        <g id="icons">
                            <g id="email">
                                <g id="Group">
                                    <g id="path-1-link" fill="#000000" fill-rule="nonzero">
                                        <path d="M2.36573661,32.6091071 C6.08486607,14.6786161 17.5283036,4.69194196 35.3780134,1.67504464 C48.5731027,-0.554665179 61.7731027,-0.582901786 74.9460937,1.73765625 C93.324933,4.97504464 104.373549,15.5441295 107.893304,33.745692 C110.612612,47.812433 110.655335,62.0291964 107.85058,76.0826786 C104.087991,93.8889286 92.3494196,104.880335 74.5655134,107.886183 C61.3704241,110.115647 48.1704241,110.143884 34.997433,107.823571 C16.6185938,104.585938 5.52087054,93.4891964 2.00136161,75.2878795 C-0.856674107,61.1283259 -0.581674107,46.8216964 2.36573661,32.6088616 L2.36573661,32.6091071 Z" id="path-1"></path>
                                    </g>
                                    <g id="path-1-link" fill="#D43239">
                                        <path d="M2.36573661,32.6091071 C6.08486607,14.6786161 17.5283036,4.69194196 35.3780134,1.67504464 C48.5731027,-0.554665179 61.7731027,-0.582901786 74.9460937,1.73765625 C93.324933,4.97504464 104.373549,15.5441295 107.893304,33.745692 C110.612612,47.812433 110.655335,62.0291964 107.85058,76.0826786 C104.087991,93.8889286 92.3494196,104.880335 74.5655134,107.886183 C61.3704241,110.115647 48.1704241,110.143884 34.997433,107.823571 C16.6185938,104.585938 5.52087054,93.4891964 2.00136161,75.2878795 C-0.856674107,61.1283259 -0.581674107,46.8216964 2.36573661,32.6088616 L2.36573661,32.6091071 Z" id="path-1"></path>
                                    </g>
                                </g>
                                <path d="M22.5892857,80.5357143 L22.5892857,34.3204911 C22.5892857,31.9098214 24.54375,29.9553571 26.9544196,29.9553571 L87.2216518,29.9553571 L87.2216518,34.6153795 L27.2495536,34.6153795 L27.2495536,80.5357143 L22.5892857,80.5357143 Z M36.4561607,42.4182589 L53.2476116,59.6563393 C54.3893527,60.8791071 56.3018304,60.9576786 57.5403125,59.833125 C57.5403125,59.833125 72.1577902,46.8403571 76.226808,43.3512946 C80.2955804,39.8622321 87.2214062,40.8394643 87.2214062,46.0362277 L87.2214062,70.7218973 C87.2214062,76.1420982 82.8277902,80.5357143 77.4075893,80.5357143 L34.7229241,80.5357143 L34.7229241,75.8759375 L77.3248437,75.8759375 C80.2165179,75.8759375 82.5613839,73.5310714 82.5613839,70.6389062 L82.5613839,47.0635491 C82.5613839,45.3170536 81.3491741,45.4982589 80.5865402,46.1820759 L58.8627679,64.931183 C56.7057366,66.8660045 53.3971429,66.7172098 51.4225446,64.5965179 L33.0508259,45.5994196 L36.4561607,42.4182589 Z" id="Shape" fill="#FFFFFF" fill-rule="nonzero"></path>
                            </g>
                        </g>
                    </g>
                </g>
            </g>
        </g>
    </g>
</svg>