<svg width="18" height="18" viewBox="0 0 18 18" fill="none" xmlns="http://www.w3.org/2000/svg">
<path d="M16.3598 0.201111C16.2311 0.0723466 16.0565 0 15.8745 0C15.6924 0 15.5178 0.0723466 15.3892 0.201111L5.94902 9.64149C4.57662 11.0139 2.34324 11.0139 0.970594 9.64149L0 10.6121C1.9076 12.5197 5.01178 12.5197 6.91962 10.6121L16.3598 1.17171C16.4885 1.04303 16.5609 0.868449 16.5609 0.686408C16.5609 0.504368 16.4885 0.32979 16.3598 0.201111Z" transform="translate(1.43555 5.72375)" fill="#CECECE"/>
<path d="M9.58455 3.24523L2.50445 10.3253C2.08924 10.7397 1.41699 10.7397 1.00178 10.3253C0.990505 10.3141 0.982828 10.3009 0.972273 10.2893L0 11.2614C0.010795 11.2727 0.0201507 11.2849 0.0311857 11.2959C0.980669 12.2452 2.52556 12.2452 3.47504 11.2959L10.5551 4.21582C11.6939 3.07707 11.9268 1.37385 11.2616 0L10.1948 1.06679C10.3762 1.82412 10.1744 2.65534 9.58455 3.24499V3.24523Z" transform="translate(4.19922 2.31042)" fill="#CECECE"/>
<path d="M2.40124 15.1315C1.02907 13.7593 1.02907 11.5257 2.40124 10.153L10.5057 2.0486C11.4081 1.14637 12.8765 1.14637 13.779 2.0486C14.0801 2.34997 14.2914 2.72912 14.3895 3.14369L15.4563 2.07691C15.2783 1.70676 15.0394 1.36917 14.7496 1.07824C13.3119 -0.359415 10.9727 -0.359415 9.53532 1.07824L1.43088 9.18244C-0.476961 11.0903 -0.476961 14.1942 1.43088 16.1021L2.40148 15.1317L2.40124 15.1315Z" transform="translate(0.00390625 0.233521)" fill="#CECECE"/>
<path d="M1.68183 7.73708L8.24713 1.17154C8.42051 0.998204 8.48825 0.745537 8.42482 0.508717C8.3614 0.271897 8.17645 0.0869031 7.93964 0.0234203C7.70284 -0.0400626 7.45016 0.0276103 7.27678 0.200947L0.711235 6.76649C-0.227213 7.7047 -0.236329 9.22392 0.680049 10.1758L1.65232 9.20353C1.2709 8.78708 1.27881 8.1401 1.68183 7.73708Z" transform="translate(3.51855 3.396)" fill="#CECECE"/>
</svg>
