<svg width="21" height="18" viewBox="0 0 21 18" fill="none" xmlns="http://www.w3.org/2000/svg">
<path d="M2.24131 4.48263C3.4787 4.48263 4.48263 3.4787 4.48263 2.24131C4.48263 1.00392 3.4787 0 2.24131 0C1.00392 0 0 1.00392 0 2.24131C0 3.4787 1.00392 4.48263 2.24131 4.48263Z" transform="translate(13.4482 2.9884)" fill="#CECECE"/>
<path fill-rule="evenodd" clip-rule="evenodd" d="M1.30762 0H19.6113C20.3398 0 20.9189 0.593018 20.9189 1.32141V16.609C20.9189 17.3375 20.3398 17.9305 19.6113 17.9305H1.30762C0.579102 17.9305 0 17.3375 0 16.609V1.32141C0 0.593018 0.579102 0 1.30762 0ZM14.1992 8.94202C14.4424 8.94202 14.6572 9.06799 14.7969 9.23145L19.4248 14.2137L19.4102 2.05457C19.3916 1.73242 19.1309 1.49426 18.8086 1.49426H2.10547C1.78809 1.49426 1.54102 1.72302 1.49414 2.04053V14.2043L7.40137 7.07886C7.58301 6.86877 7.87207 6.7146 8.18555 6.7146C8.49805 6.7146 8.77832 6.8501 8.96484 7.06482L11.4775 9.78247C11.5469 9.85254 11.6318 9.93188 11.6777 9.97388C11.8086 10.0906 11.9912 10.1653 12.1914 10.1653C12.4023 10.1653 12.5469 10.0767 12.7285 9.94592L13.6016 9.20813C13.793 9.05408 13.9619 8.94202 14.1992 8.94202Z" fill="#CECECE"/>
</svg>
