<?xml version="1.0" encoding="UTF-8"?>
<svg width="108px" height="108px" viewBox="0 0 108 108" version="1.1" xmlns="http://www.w3.org/2000/svg" xmlns:xlink="http://www.w3.org/1999/xlink">
    <!-- Generator: Sketch 49.2 (51160) - http://www.bohemiancoding.com/sketch -->
    <title>Binder</title>
    <desc>Created with Sketch.</desc>
    <defs>
        <circle id="path-1" cx="50" cy="50" r="50"></circle>
        <filter x="-7.0%" y="-5.0%" width="114.0%" height="114.0%" filterUnits="objectBoundingBox" id="filter-2">
            <feOffset dx="0" dy="2" in="SourceAlpha" result="shadowOffsetOuter1"></feOffset>
            <feGaussianBlur stdDeviation="2" in="shadowOffsetOuter1" result="shadowBlurOuter1"></feGaussianBlur>
            <feColorMatrix values="0 0 0 0 0.607892215   0 0 0 0 0.607803345   0 0 0 0 0.607922554  0 0 0 1 0" type="matrix" in="shadowBlurOuter1"></feColorMatrix>
        </filter>
    </defs>
    <g id="Web" stroke="none" stroke-width="1" fill="none" fill-rule="evenodd">
        <g id="Candidate-Registration-(Add-Experience)" transform="translate(-666.000000, -1779.000000)">
            <g id="Projects-Card" transform="translate(120.000000, 1781.000000)">
                <g id="Binder" transform="translate(550.000000, 0.000000)">
                    <g id="Oval-4-Copy">
                        <use fill="black" fill-opacity="1" filter="url(#filter-2)" xlink:href="#path-1"></use>
                        <use fill="#FFFFFF" fill-rule="evenodd" xlink:href="#path-1"></use>
                    </g>
                    <g id="Layer_1" transform="translate(25.000000, 19.000000)" fill-rule="nonzero">
                        <path d="M11.6247934,61.9834711 L5.83966942,61.9834711 C4.47036839,61.9834711 3.36033058,60.8734333 3.36033058,59.5041322 L3.36033058,2.47933884 C3.36033058,1.11003781 4.47036839,0 5.83966942,0 L11.6247934,0 L11.6247934,61.9834711 Z" id="Shape" fill="#44C4A1"></path>
                        <path d="M47.4661157,61.9834711 L11.6247934,61.9834711 L11.6247934,0 L47.4661157,0 C48.8354167,0 49.9454545,1.11003781 49.9454545,2.47933884 L49.9454545,59.5041322 C49.9454545,60.8734333 48.8354167,61.9834711 47.4661157,61.9834711 Z" id="Shape" fill="#27A2DB"></path>
                        <path d="M5.01322314,8.83719008 L1.70743802,8.83719008 C0.794570661,8.83719008 0.0545454545,8.09716488 0.0545454545,7.18429752 C0.0545454545,6.27143017 0.794570661,5.53140496 1.70743802,5.53140496 L5.01322314,5.53140496 C5.9260905,5.53140496 6.6661157,6.27143017 6.6661157,7.18429752 C6.6661157,8.09716488 5.9260905,8.83719008 5.01322314,8.83719008 Z" id="Shape" fill="#E1E6E9"></path>
                        <path d="M5.01322314,16.7735537 L1.70743802,16.7735537 C0.794570661,16.7735537 0.0545454545,16.0335285 0.0545454545,15.1206612 C0.0545454545,14.2077938 0.794570661,13.4677686 1.70743802,13.4677686 L5.01322314,13.4677686 C5.9260905,13.4677686 6.6661157,14.2077938 6.6661157,15.1206612 C6.6661157,16.0335285 5.9260905,16.7735537 5.01322314,16.7735537 Z" id="Shape" fill="#E1E6E9"></path>
                        <path d="M5.01322314,24.7090909 L1.70743802,24.7090909 C0.794570661,24.7090909 0.0545454545,23.9690657 0.0545454545,23.0561983 C0.0545454545,22.143331 0.794570661,21.4033058 1.70743802,21.4033058 L5.01322314,21.4033058 C5.9260905,21.4033058 6.6661157,22.143331 6.6661157,23.0561983 C6.6661157,23.9690657 5.9260905,24.7090909 5.01322314,24.7090909 Z" id="Shape" fill="#E1E6E9"></path>
                        <path d="M5.01322314,32.6446281 L1.70743802,32.6446281 C0.794570661,32.6446281 0.0545454545,31.9046029 0.0545454545,30.9917355 C0.0545454545,30.0788682 0.794570661,29.338843 1.70743802,29.338843 L5.01322314,29.338843 C5.9260905,29.338843 6.6661157,30.0788682 6.6661157,30.9917355 C6.6661157,31.9046029 5.9260905,32.6446281 5.01322314,32.6446281 Z" id="Shape" fill="#E1E6E9"></path>
                        <path d="M5.01322314,40.5801653 L1.70743802,40.5801653 C0.794570661,40.5801653 0.0545454545,39.8401401 0.0545454545,38.9272727 C0.0545454545,38.0144054 0.794570661,37.2743802 1.70743802,37.2743802 L5.01322314,37.2743802 C5.9260905,37.2743802 6.6661157,38.0144054 6.6661157,38.9272727 C6.6661157,39.8401401 5.9260905,40.5801653 5.01322314,40.5801653 Z" id="Shape" fill="#E1E6E9"></path>
                        <path d="M5.01322314,48.5157025 L1.70743802,48.5157025 C0.794570661,48.5157025 0.0545454545,47.7756773 0.0545454545,46.8628099 C0.0545454545,45.9499426 0.794570661,45.2099174 1.70743802,45.2099174 L5.01322314,45.2099174 C5.9260905,45.2099174 6.6661157,45.9499426 6.6661157,46.8628099 C6.6661157,47.7756773 5.9260905,48.5157025 5.01322314,48.5157025 Z" id="Shape" fill="#E1E6E9"></path>
                        <path d="M5.01322314,56.4520661 L1.70743802,56.4520661 C0.794570661,56.4520661 0.0545454545,55.7120409 0.0545454545,54.7991736 C0.0545454545,53.8863062 0.794570661,53.146281 1.70743802,53.146281 L5.01322314,53.146281 C5.9260905,53.146281 6.6661157,53.8863062 6.6661157,54.7991736 C6.6661157,55.7120409 5.9260905,56.4520661 5.01322314,56.4520661 Z" id="Shape" fill="#E1E6E9"></path>
                        <polygon id="Shape" fill="#E1E6E9" points="17.8363636 13.4677686 43.7338843 13.4677686 43.7338843 25.0380165 17.8363636 25.0380165"></polygon>
                        <polygon id="Shape" fill="#D5D6DB" points="42.907438 13.4677686 42.907438 24.2115702 17.8363636 24.2115702 17.8363636 25.0380165 43.7338843 25.0380165 43.7338843 13.4677686"></polygon>
                        <path d="M38.8628099,16.153719 L25.6396694,16.153719 C25.2973442,16.153719 25.0198347,16.4312285 25.0198347,16.7735537 C25.0198347,17.115879 25.2973442,17.3933884 25.6396694,17.3933884 L38.8628099,17.3933884 C39.2051352,17.3933884 39.4826446,17.115879 39.4826446,16.7735537 C39.4826446,16.4312285 39.2051352,16.153719 38.8628099,16.153719 Z" id="Shape" fill="#D5D6DB"></path>
                        <path d="M38.8628099,20.1636364 L25.6396694,20.1636364 C25.2973442,20.1636364 25.0198347,20.4411458 25.0198347,20.7834711 C25.0198347,21.1257963 25.2973442,21.4033058 25.6396694,21.4033058 L38.8628099,21.4033058 C39.2051352,21.4033058 39.4826446,21.1257963 39.4826446,20.7834711 C39.4826446,20.4411458 39.2051352,20.1636364 38.8628099,20.1636364 Z" id="Shape" fill="#D5D6DB"></path>
                    </g>
                </g>
            </g>
        </g>
    </g>
</svg>