<?xml version="1.0" encoding="UTF-8"?>
<svg width="108px" height="108px" viewBox="0 0 108 108" version="1.1" xmlns="http://www.w3.org/2000/svg" xmlns:xlink="http://www.w3.org/1999/xlink">
    <!-- Generator: Sketch 49.2 (51160) - http://www.bohemiancoding.com/sketch -->
    <title>Briefcase</title>
    <desc>Created with Sketch.</desc>
    <defs>
        <circle id="path-1" cx="50" cy="50" r="50"></circle>
        <filter x="-7.0%" y="-5.0%" width="114.0%" height="114.0%" filterUnits="objectBoundingBox" id="filter-2">
            <feOffset dx="0" dy="2" in="SourceAlpha" result="shadowOffsetOuter1"></feOffset>
            <feGaussianBlur stdDeviation="2" in="shadowOffsetOuter1" result="shadowBlurOuter1"></feGaussianBlur>
            <feColorMatrix values="0 0 0 0 0.607892215   0 0 0 0 0.607803345   0 0 0 0 0.607922554  0 0 0 1 0" type="matrix" in="shadowBlurOuter1"></feColorMatrix>
        </filter>
    </defs>
    <g id="Web" stroke="none" stroke-width="1" fill="none" fill-rule="evenodd">
        <g id="Candidate-Registration-(Add-Experience)" transform="translate(-666.000000, -525.000000)">
            <g id="Work-Exp-Card" transform="translate(120.000000, 527.000000)">
                <g id="Briefcase" transform="translate(550.000000, 0.000000)">
                    <g id="Oval-4">
                        <use fill="black" fill-opacity="1" filter="url(#filter-2)" xlink:href="#path-1"></use>
                        <use fill="#FFFFFF" fill-rule="evenodd" xlink:href="#path-1"></use>
                    </g>
                    <g id="briefcase" transform="translate(25.000000, 27.000000)" fill-rule="nonzero">
                        <g id="Page-1">
                            <g id="briefcase">
                                <path d="M45,45.4545455 L5,45.4545455 C2.23857625,45.4545455 0,43.2544705 0,40.5405405 L0,15.970516 L0,38.0835381 C0,40.7974681 2.23857625,42.997543 5,42.997543 L45,42.997543 C47.7614237,42.997543 50,40.7974681 50,38.0835381 L50,40.5405405 C50,43.2544705 47.7614237,45.4545455 45,45.4545455" id="Fill-4" fill="#414A55"></path>
                                <path d="M32.5,0 L17.5,0 C14.7385763,0 12.5,2.20007494 12.5,4.91400491 L12.5,29.4840295 C12.5,32.1979595 14.7385763,34.3980344 17.5,34.3980344 L32.5,34.3980344 C35.2614237,34.3980344 37.5,32.1979595 37.5,29.4840295 L37.5,4.91400491 C37.5,2.20007494 35.2614237,0 32.5,0 Z M17.5,29.4840295 L32.5,29.4840295 L32.5,4.91400491 L17.5,4.91400491 L17.5,29.4840295 Z" id="Fill-5" fill="#D5915B"></path>
                                <path d="M0,19.6560197 L0,38.0835381 C0,40.7974681 2.23857625,42.997543 5,42.997543 L45,42.997543 C47.7614237,42.997543 50,40.7974681 50,38.0835381 L50,19.6560197 L0,19.6560197" id="Fill-6" fill="#D5915B"></path>
                                <path d="M50,19.6560197 L37.5,19.6560197 L37.5,11.0565111 L45.00875,11.0565111 C47.766756,11.0612546 50.0000042,13.2599408 50,15.970516 L50,19.6560197 M12.5,19.6560197 L0,19.6560197 L0,15.970516 C0,13.256586 2.23857625,11.0565111 5,11.0565111 L12.5,11.0565111 L12.5,19.6560197 M32.5,16.6277641 C31.7401825,16.1959364 30.8777128,15.9691938 30,15.970516 L20,15.970516 C19.08875,15.970516 18.235,16.2100737 17.5,16.6277641 L17.5,11.0565111 L32.5,11.0565111 L32.5,16.6277641" id="Fill-8" fill="#3A4048"></path>
                                <path d="M37.5,19.6560197 L34.8425,19.6560197 C34.5063484,18.3787682 33.6623565,17.2877017 32.5,16.6277641 L32.5,11.0565111 L37.5,11.0565111 L37.5,19.6560197 M15.1575,19.6560197 L12.5,19.6560197 L12.5,11.0565111 L17.5,11.0565111 L17.5,16.6277641 C16.3376435,17.2877017 15.4936516,18.3787682 15.1575,19.6560197" id="Fill-9" fill="#AE7A51"></path>
                                <path d="M50,22.1812722 L35,22.1812722 L35,20.9186459 C35,20.4830399 34.945,20.0600601 34.8425,19.6560197 L50,19.6560197 L50,22.1812722 M15,22.1812722 L0,22.1812722 L0,19.6560197 L15.1575,19.6560197 C15.055,20.0600601 15,20.4830399 15,20.9186459 L15,22.1812722" id="Fill-10" fill="#AE7A51"></path>
                                <path d="M30,29.4840295 L20,29.4840295 C17.2385763,29.4840295 15,27.2839545 15,24.5700246 L15,22.1130221 L35,22.1130221 L35,24.5700246 C35,27.2839545 32.7614237,29.4840295 30,29.4840295" id="Fill-11" fill="#AE7A51"></path>
                                <path d="M32.5,19.6560197 L17.5,19.6560197 L17.5,16.6277641 C18.2598175,16.1959364 19.1222872,15.9691938 20,15.970516 L30,15.970516 C30.91125,15.970516 31.765,16.2100737 32.5,16.6277641 L32.5,19.6560197" id="Fill-12" fill="#34393E"></path>
                                <path d="M34.8425,19.6560197 L32.5,19.6560197 L32.5,16.6277641 C33.6623565,17.2877017 34.5063484,18.3787682 34.8425,19.6560197 M17.5,19.6560197 L15.1575,19.6560197 C15.4936516,18.3787682 16.3376435,17.2877017 17.5,16.6277641 L17.5,19.6560197" id="Fill-13" fill="#906747"></path>
                                <path d="M35,22.1812722 L15,22.1812722 L15,20.9186459 C15,20.4830399 15.055,20.0600601 15.1575,19.6560197 L34.8425,19.6560197 C34.945,20.0600601 35,20.4830399 35,20.9186459 L35,22.1812722" id="Fill-14" fill="#906747"></path>
                                <path d="M30,13.5135135 L20,13.5135135 C17.2385763,13.5135135 15,15.7135885 15,18.4275184 L15,22.1130221 C15,24.8269521 17.2385763,27.027027 20,27.027027 L30,27.027027 C32.7614237,27.027027 35,24.8269521 35,22.1130221 L35,18.4275184 C35,15.7135885 32.7614237,13.5135135 30,13.5135135 Z M20,22.1130221 L30,22.1130221 L30,18.4275184 L20,18.4275184 L20,22.1130221 Z" id="Fill-15" fill="#F0CB83"></path>
                                <path d="M50,13.5135135 C50,10.7995835 47.7614237,8.5995086 45,8.5995086 L5,8.5995086 C2.23857625,8.5995086 0,10.7995835 0,13.5135135 L0,19.6560197 L50,19.6560197 L50,13.5135135" id="Fill-16" fill="#D5915B"></path>
                            </g>
                        </g>
                    </g>
                </g>
            </g>
        </g>
    </g>
</svg>