<?xml version="1.0" encoding="UTF-8"?>
<svg width="108px" height="108px" viewBox="0 0 108 108" version="1.1" xmlns="http://www.w3.org/2000/svg" xmlns:xlink="http://www.w3.org/1999/xlink">
    <!-- Generator: Sketch 49.2 (51160) - http://www.bohemiancoding.com/sketch -->
    <title>Graduate</title>
    <desc>Created with Sketch.</desc>
    <defs>
        <circle id="path-1" cx="50" cy="50" r="50"></circle>
        <filter x="-7.0%" y="-5.0%" width="114.0%" height="114.0%" filterUnits="objectBoundingBox" id="filter-2">
            <feOffset dx="0" dy="2" in="SourceAlpha" result="shadowOffsetOuter1"></feOffset>
            <feGaussianBlur stdDeviation="2" in="shadowOffsetOuter1" result="shadowBlurOuter1"></feGaussianBlur>
            <feColorMatrix values="0 0 0 0 0.807843137   0 0 0 0 0.807843137   0 0 0 0 0.807843137  0 0 0 1 0" type="matrix" in="shadowBlurOuter1"></feColorMatrix>
        </filter>
    </defs>
    <g id="Web" stroke="none" stroke-width="1" fill="none" fill-rule="evenodd">
        <g id="Candidate-Registration-(1)" transform="translate(-666.000000, -525.000000)">
            <g id="Graduate" transform="translate(670.000000, 527.000000)">
                <g id="Oval-4">
                    <use fill="black" fill-opacity="1" filter="url(#filter-2)" xlink:href="#path-1"></use>
                    <use fill="#FFFFFF" fill-rule="evenodd" xlink:href="#path-1"></use>
                </g>
                <g id="Layer_1" transform="translate(25.000000, 22.000000)" fill-rule="nonzero">
                    <path d="M49.9925926,45.1585185 L49.9925926,55.7407407 L0.00740740741,55.7407407 L0.00740740741,45.1585185 C0.00958372826,42.6753503 1.39018632,40.3986972 3.59111111,39.2488889 L11.1148148,35.3311111 L11.1444444,35.3162963 L11.3888889,35.1903704 L38.6111111,35.1903704 L38.8555556,35.3162963 L38.8851852,35.3311111 L46.4014815,39.2488889 C48.6067506,40.3952156 49.9912446,42.6731066 49.9933333,45.1585185 L49.9925926,45.1585185 Z" id="Shape" fill="#2F4859"></path>
                    <polygon id="Shape" fill="#F6C358" points="32.1459259 31.8311111 24.9985185 37.0222222 17.8511111 31.8311111 17.8511111 26.7155556 32.1459259 26.7155556"></polygon>
                    <path d="M36.2355556,17.9659259 C36.1588234,17.9500891 36.0800568,17.9465883 36.0022222,17.9555556 C36.0681481,17.3525926 36.1059259,16.7496296 36.1059259,16.1511111 C36.1059259,8.93333333 31.1325926,6.62814815 24.9985185,6.62814815 C18.8644444,6.62814815 13.8918519,8.93333333 13.8918519,16.1511111 C13.8918519,16.7496296 13.9288889,17.3525926 13.9955556,17.9555556 C13.917721,17.9465883 13.8389544,17.9500891 13.7622222,17.9659259 C13.0022222,18.1525926 12.6844444,19.5377778 13.0511111,21.0592593 C13.417037,22.58 14.3303704,23.6614815 15.0896296,23.4740741 C15.2112163,23.4396203 15.3225764,23.3760586 15.4140741,23.2888889 C17.3422222,27.7688889 20.9111111,31.2851852 24.9992593,31.2851852 C29.0874074,31.2851852 32.6555556,27.7688889 34.5837037,23.2881481 C34.6814815,23.3748148 34.7866667,23.4444444 34.9081481,23.4748148 C35.6674074,23.6614815 36.58,22.58 36.9466667,21.0592593 C37.3133333,19.5377778 36.9948148,18.1525926 36.2355556,17.9659259 Z" id="Shape" fill="#FCD462"></path>
                    <polygon id="Shape" fill="#2F4859" points="13.5340741 5.71259259 36.462963 5.71259259 36.462963 14.2703704 13.5340741 14.2703704"></polygon>
                    <polygon id="Shape" fill="#E1E6E9" points="7.92888889 5.71259259 10.1518519 5.71259259 10.1518519 18.32 7.92962963 18.32"></polygon>
                    <polygon id="Shape" fill="#E1E6E9" points="11.5725926 23.5214815 6.50888889 23.5214815 7.7237037 18.32 10.3577778 18.32"></polygon>
                    <path d="M24.8748148,0.2 L6.31185185,4.76592593 C5.78518519,4.89555556 5.78518519,5.6437037 6.31185185,5.77333333 L24.8748148,10.3385185 C24.9560759,10.3584815 25.0409612,10.3584815 25.1222222,10.3385185 L43.6859259,5.77333333 C44.2118519,5.6437037 44.2118519,4.89555556 43.6859259,4.76592593 L25.122963,0.2 C25.0414661,0.179915496 24.9563117,0.179915496 24.8748148,0.2 Z" id="Shape" fill="#3A556A"></path>
                    <circle id="Oval" fill="#D5D6DB" cx="9.04067711" cy="18.3199225" r="2.03648422"></circle>
                    <polygon id="Shape" fill="#EBF0F3" points="32.1451852 31.8311111 34.0044444 33.1111111 28.9725926 42.2133333 24.9985185 37.0222222"></polygon>
                    <polygon id="Shape" fill="#EBF0F3" points="17.8518519 31.8311111 15.9925926 33.1111111 21.0244444 42.2133333 24.9985185 37.0222222"></polygon>
                    <polygon id="Shape" fill="#E56353" points="27.5051852 40.2962963 24.9985185 37.0222222 22.4925926 40.2962963 23.9555556 41.6844444 21.8659259 55.7407407 28.1318519 55.7407407 26.0422222 41.6844444"></polygon>
                    <g id="Group" transform="translate(10.925926, 32.407407)" fill="#64798A">
                        <polygon id="Shape" points="27.9592593 2.9237037 17.302963 23.3333333 14.377037 23.3333333 18.0437037 9.8037037 21.9311111 2.7837037 23.0792593 0.702222222 27.6481481 2.7837037 27.9296296 2.90962963"></polygon>
                        <polygon id="Shape" points="13.7703704 23.3333333 10.8451852 23.3333333 0.188888889 2.9237037 0.218518519 2.90888889 0.5 2.78296296 5.06888889 0.702222222 6.21703704 2.7837037 10.097037 9.8037037"></polygon>
                    </g>
                </g>
            </g>
        </g>
    </g>
</svg>