<svg width="20" height="20" viewBox="0 0 20 20" fill="none" xmlns="http://www.w3.org/2000/svg">
<path fill-rule="evenodd" clip-rule="evenodd" d="M14.5742 13.2888L19.7334 18.4482C19.9941 18.7082 20.0713 19.0992 19.9307 19.4389C19.79 19.7786 19.459 20 19.0908 20C18.8496 20.0002 18.6182 19.9044 18.4482 19.7336L13.2891 14.5743C11.8887 15.6941 10.1133 16.3636 8.18164 16.3636C3.66309 16.3636 0 12.7004 0 8.18182C0 3.66318 3.66309 0 8.18164 0C12.7002 0 16.3633 3.66318 16.3633 8.18182C16.3662 10.0383 15.7354 11.8401 14.5742 13.2888ZM1.81836 8.18182C1.81836 11.6964 4.66699 14.5454 8.18164 14.5454C11.6963 14.5454 14.5459 11.6964 14.5459 8.18182C14.5459 4.66727 11.6963 1.81818 8.18164 1.81818C4.66699 1.81818 1.81836 4.66727 1.81836 8.18182Z" fill="#9B9B9B"/>
</svg>
