<svg width="23" height="20" viewBox="0 0 23 20" fill="none" xmlns="http://www.w3.org/2000/svg">
<path fill-rule="evenodd" clip-rule="evenodd" d="M10.457 6.78571C10.457 10.5275 8.11133 13.5714 5.22852 13.5714C2.3457 13.5714 0 10.5275 0 6.78571C0 3.04391 2.3457 0 5.22852 0C8.11133 0 10.457 3.04391 10.457 6.78571ZM9.0625 6.78571C9.0625 3.88177 7.30664 1.42856 5.22852 1.42856C3.15039 1.42856 1.39453 3.88177 1.39453 6.78571C1.39453 9.68964 3.15039 12.1429 5.22852 12.1429C7.30664 12.1429 9.0625 9.68964 9.0625 6.78571Z" transform="translate(5.92578)" fill="#D43239"/>
<path fill-rule="evenodd" clip-rule="evenodd" d="M0.0351562 6.20273L1.42969 1.91702C1.50195 1.69342 1.67773 1.52103 1.90039 1.4563L6.7793 0.0277405C6.94727 -0.0215454 7.12695 -0.00445557 7.2832 0.075592L11.1543 2.05881L15.0234 0.075592C15.1797 -0.00460815 15.3594 -0.021698 15.5273 0.0277405L20.4082 1.4563C20.6289 1.52109 20.8047 1.69345 20.877 1.91702L22.2715 6.20273C22.3418 6.42056 22.3066 6.66013 22.1758 6.84631C22.0449 7.03275 21.834 7.1431 21.6113 7.1431H0.697266C0.472656 7.14291 0.261719 7.03247 0.130859 6.84619C0 6.65994 -0.0351562 6.42056 0.0351562 6.20273ZM10.8418 3.49634L6.90234 1.47775L2.63672 2.72632L1.66406 5.71454H20.6445L19.6719 2.72632L15.4062 1.47775L11.4668 3.49634C11.2695 3.59665 11.0391 3.59665 10.8418 3.49634Z" transform="translate(0 12.8569)" fill="#D43239"/>
</svg>
