<svg width="36" height="12" viewBox="0 0 36 12" fill="none" xmlns="http://www.w3.org/2000/svg">
<path d="M1.248 4.672H8.944V6.976H3.744V9.088H8.656V11.392H3.744V13.696H9.232V16H1.248V4.672ZM11.2301 4.672H14.9741C15.8808 4.672 16.7395 4.77333 17.5501 4.976C18.3715 5.17867 19.0861 5.50933 19.6941 5.968C20.3021 6.416 20.7821 7.00267 21.1341 7.728C21.4968 8.45333 21.6781 9.33333 21.6781 10.368C21.6781 11.2853 21.5021 12.096 21.1501 12.8C20.8088 13.4933 20.3448 14.08 19.7581 14.56C19.1715 15.0293 18.4941 15.3867 17.7261 15.632C16.9581 15.8773 16.1528 16 15.3101 16H11.2301V4.672ZM13.7261 13.696H15.0221C15.5981 13.696 16.1315 13.6373 16.6221 13.52C17.1235 13.4027 17.5555 13.2107 17.9181 12.944C18.2808 12.6667 18.5635 12.3093 18.7661 11.872C18.9795 11.424 19.0861 10.88 19.0861 10.24C19.0861 9.68533 18.9795 9.20533 18.7661 8.8C18.5635 8.384 18.2861 8.04267 17.9341 7.776C17.5821 7.50933 17.1661 7.312 16.6861 7.184C16.2168 7.04533 15.7208 6.976 15.1981 6.976H13.7261V13.696ZM23.3388 4.672H25.8347V16H23.3388V4.672ZM30.2971 6.88H27.0651V4.672H36.0251V6.88H32.7931V16H30.2971V6.88Z" transform="translate(-1 -4)" fill="#D43239"/>
</svg>
