<svg width="178" height="46" viewBox="0 0 178 46" fill="none" xmlns="http://www.w3.org/2000/svg">
<path d="M0 22.9169C0 10.2622 10.2622 0 22.9169 0C35.5715 0 45.8337 10.2622 45.8337 22.9169C45.8337 35.5715 35.5715 45.8337 22.9169 45.8337C10.2622 45.8337 0 35.5715 0 22.9169Z" transform="translate(132.083 0.0831299)" fill="#4A86C5"/>
<path d="M32.4032 0C41.3538 8.9506 41.3538 23.4618 32.4032 32.4032C23.4526 41.3538 8.94137 41.3538 0 32.4032L32.4032 0Z" transform="translate(138.799 6.79834)" fill="#3D80B2"/>
<path d="M0 0.794378C0.18 0.535743 0.34 0.267871 0.5 0C0.34 0.267871 0.18 0.535743 0 0.794378Z" transform="translate(176.827 29.198)" fill="#4A86C5"/>
<path d="M33.0129 19.7486L20.5984 7.33414L17.7719 10.1606L15.8137 8.19317L14.1787 9.82811L4.58153 0.230924L3.99036 0L0.304819 3.68554L4.74779 8.12851L0.397189 12.4791L4.64618 16.7281L0 21.3743L14.7791 36.1349C23.2863 34.7032 30.2048 28.5976 32.7819 20.5337C32.8651 20.2843 32.939 20.0165 33.0129 19.7486Z" transform="translate(144.045 9.44934)" fill="#377CA5"/>
<path fill-rule="evenodd" clip-rule="evenodd" d="M2.79004 0C1.1084 0 0 1.1084 0 2.55859C0 3.98108 1.07129 5.11731 2.72461 5.11731H2.76172C4.47949 5.11731 5.55176 3.98108 5.55176 2.55859C5.50488 1.1084 4.4707 0 2.79004 0ZM22.9814 13.4674V21.9655H18.0576V14.0402C18.0576 12.0449 17.3467 10.6871 15.5635 10.6871C14.2061 10.6871 13.3936 11.6016 13.0332 12.4883C12.9033 12.8024 12.8662 13.2457 12.8662 13.6891V21.9655H7.94336C7.94336 21.9655 8.00781 8.53491 7.94336 7.14929H12.8662V9.24609C12.8574 9.26465 12.8486 9.28308 12.8389 9.29236H12.8662V9.24609C13.5225 8.23926 14.6865 6.79834 17.3096 6.79834C20.5518 6.79834 22.9814 8.91357 22.9814 13.4674ZM5.21875 21.9655H0.294922V7.14941H5.21875V21.9655Z" transform="translate(143.777 8.90442)" fill="white"/>
<path d="M23 0C35.7029 0 46 10.557 46 23.5819C46 33.9986 39.4174 42.8352 30.2841 45.9563C29.118 46.1886 28.704 45.4526 28.704 44.8247C28.704 44.0473 28.7316 41.5081 28.7316 38.3525C28.7316 36.1537 27.9956 34.7185 27.1699 33.9871C32.292 33.4029 37.674 31.4088 37.674 22.3514C37.674 19.7754 36.7816 17.6732 35.305 16.0218C35.5442 15.4261 36.3331 13.0272 35.0796 9.7796C35.0796 9.7796 33.1522 9.1471 28.7615 12.1969C26.8855 11.674 24.9475 11.4071 23 11.4034C21.054 11.4069 19.1175 11.6738 17.2431 12.1969C12.8478 9.1471 10.9158 9.7796 10.9158 9.7796C9.6669 13.0272 10.4558 15.4261 10.6927 16.0218C9.223 17.6732 8.3237 19.7754 8.3237 22.3514C8.3237 31.3858 13.6942 33.4098 18.8025 34.0055C18.1447 34.5943 17.549 35.6339 17.342 37.1588C16.031 37.7614 12.7006 38.8033 10.649 35.1992C10.649 35.1992 9.4323 32.9337 7.1231 32.7681C7.1231 32.7681 4.8806 32.7382 6.9667 34.201C6.9667 34.201 8.4732 34.9255 9.5197 37.651C9.5197 37.651 10.8698 41.86 17.2684 40.434C17.2799 42.4051 17.3006 44.2635 17.3006 44.8247C17.3006 45.448 16.8774 46.1771 15.7297 45.9586C6.5895 42.8421 0 34.0009 0 23.5819C0 10.557 10.2994 0 23 0" transform="translate(66)" fill="black"/>
<path fill-rule="evenodd" clip-rule="evenodd" d="M0 23C0 10.35 10.3496 0 23 0C35.6504 0 46 10.35 46 23C46 35.65 35.6504 46 23 46C10.3496 46 0 35.65 0 23ZM39.5303 15.6687C39.0273 15.4531 38.5244 15.2375 37.9502 15.2375C36.9971 15.2375 36.4385 15.4349 35.7842 15.6661C35.6494 15.714 35.5098 15.7632 35.3623 15.8125C36.5127 17.25 40.25 17.25 41.1123 16.1001C40.5371 16.1001 40.0342 15.8844 39.5303 15.6687ZM2.875 23C2.875 21.85 2.875 20.7 3.16211 19.2625C3.30664 19.2625 3.4502 19.3344 3.59375 19.4062C3.7373 19.478 3.88086 19.5499 4.02539 19.5499C4.02539 19.5499 4.3125 19.8374 4.3125 20.125C4.3125 20.9874 5.1748 21.5625 5.75 21.5625C7.01367 21.7205 7.84375 22.3993 8.66797 23.0742C9.34473 23.6276 10.0176 24.1785 10.9248 24.4375C11.5 24.725 11.2129 25.2999 10.9248 25.875C9.2002 28.1749 10.6377 29.8999 12.0752 31.3374C13.3379 32.3473 13.4912 33.3572 13.7041 34.7563L13.7266 34.9028L13.7998 35.3624C13.7998 37.375 14.0879 39.6749 14.9502 41.6875C7.7627 38.2374 2.875 31.3374 2.875 23ZM16.9629 42.2625C18.6875 42.8375 20.9873 43.125 23 43.125C28.75 43.125 33.6377 40.825 37.375 36.8C37.0879 36.5125 36.7998 36.225 36.5127 35.65C36.417 35.4589 36.3184 35.2677 36.2188 35.0757C35.4199 33.5356 34.5957 31.9451 35.3623 29.9C35.6504 29.325 35.3623 28.75 35.0752 28.175C35.0752 28.0312 35.0029 27.8875 34.9307 27.7437C34.8594 27.6 34.7871 27.4562 34.7871 27.3125C34.3652 26.1866 34.1494 25.6119 33.7363 25.3522C33.3047 25.0813 32.6582 25.1532 31.3379 25.3C29.0371 25.5875 27.5996 23.575 27.5996 21.5625C27.5996 19.929 28.3574 18.8635 29.2588 17.5977C29.4668 17.3042 29.6836 16.9998 29.9004 16.675C29.9561 16.6195 30.0215 16.5641 30.0908 16.5066C30.377 16.2659 30.707 15.989 30.4746 15.525C29.6123 14.0875 30.1875 13.225 31.9121 12.9375C31.8418 12.7258 31.8057 12.4969 31.7705 12.272C31.6621 11.58 31.5596 10.925 30.4746 10.925C30.4746 10.3851 30.8125 10.0706 31.1367 9.76978C31.3291 9.58997 31.5176 9.41504 31.625 9.19995C32.25 9.19995 32.4219 9.50208 32.5791 9.77771C32.6387 9.88245 32.6963 9.9834 32.7754 10.0625C33.0625 10.35 33.3496 10.6375 33.9248 10.35C34.2129 10.0625 34.5 9.77502 34.2129 9.19995C33.5107 8.26489 33.9502 7.90002 34.4482 7.48718C34.5625 7.39233 34.6797 7.29492 34.7871 7.1875C34.9316 7.1875 35.0029 7.11548 35.0752 7.04358C35.1475 6.9718 35.2188 6.90002 35.3623 6.90002C33.6377 5.75 31.9121 4.59998 30.1875 4.02502C30.0781 4.13489 29.9678 4.20288 29.874 4.26086C29.7227 4.35449 29.6123 4.42236 29.6123 4.59998C28.75 5.75 27.8877 6.32495 26.7373 6.61255L26.4473 6.70703C25.6318 6.96924 24.6621 7.28125 24.1504 8.05005C23.8623 8.625 23.2871 8.625 22.7129 8.33752C22.1377 8.05005 21.8496 7.47498 22.1377 6.90002C22.7129 5.46252 22.4248 4.59998 20.7002 4.3125C21.8496 3.73755 23.5752 3.16248 25.2998 2.875H23C18.9746 2.875 14.9502 4.02502 11.7871 6.32495C13.5127 6.32495 14.9502 5.75 16.0996 5.17505C16.6748 4.88745 17.25 4.88745 17.8252 4.88745C18.9746 4.88745 20.125 5.46252 20.125 6.61255C20.4121 7.47498 19.2627 8.05005 18.4004 8.33752C18.4004 8.33752 18.1123 8.33752 18.1123 8.625C19.2627 8.91248 20.125 10.6375 19.8379 12.075C19.8379 12.65 19.5498 12.65 18.9746 12.65C18.6875 12.5063 18.4717 12.2908 18.292 12.1111C18.1123 11.9313 17.9688 11.7875 17.8252 11.7875C17.5371 11.7875 15.2373 13.8 15.2373 13.8C13.5127 14.95 11.7871 16.3875 10.9248 18.975C10.3496 17.5375 9.2002 17.5375 8.0498 17.825C7.47461 18.1125 7.1875 18.4 6.90039 18.975C6.90039 19.1189 6.88281 19.2628 6.86426 19.4066C6.81055 19.8378 6.75586 20.2689 7.1875 20.7C7.7627 20.9875 8.0498 20.7 8.33789 20.4125C8.625 20.125 8.91211 20.125 9.2002 20.125C9.04395 20.7468 9.39355 21.2847 9.74609 21.8292C10.0469 22.2917 10.3496 22.7593 10.3496 23.2875C10.3496 24.15 11.2129 23.8625 11.7871 23.575C13.2246 22.7125 14.9502 23.2875 16.6748 24.15C17.3711 24.4978 17.9727 25.0326 18.5947 25.5847C19.5146 26.4019 20.4775 27.2568 21.8496 27.6C23 27.8875 23.2871 28.75 22.4248 30.1875C22.1377 30.7625 21.8496 31.625 21.8496 32.2C21.8496 33.0625 21.2754 33.6375 20.7002 34.2125C19.2627 36.225 18.1123 38.2375 16.9629 40.5375C16.6748 41.1125 16.6748 41.6875 16.9629 42.2625Z" fill="#6B6B6B"/>
</svg>
