<svg width="19" height="25" viewBox="0 0 19 25" fill="none" xmlns="http://www.w3.org/2000/svg">
<path d="M10.8801 0H0V24.1935H18.1335V7.25806L10.8801 0Z" transform="translate(0.40332 0.403198)" fill="#EEC53D"/>
<g opacity="0.2">
<path d="M0 7.25806H7.25339L0 0V7.25806Z" transform="translate(11.2832 0.403198)" fill="#100D11"/>
</g>
<path fill-rule="evenodd" clip-rule="evenodd" d="M0.242188 24.6774H18.375C18.5166 24.6774 18.6172 24.5767 18.6172 24.4354V8.3064C18.6172 7.0564 17.6094 6.04834 16.3604 6.04834H12.5723V2.25806C12.5723 1.00806 11.5654 0 10.3164 0H0.242188C0.121094 0 0 0.10083 0 0.241943V24.4354C0 24.5564 0.100586 24.6774 0.242188 24.6774ZM18.1133 24.1936H0.483398V0.483887H10.3154C11.3027 0.483887 12.0889 1.29028 12.0889 2.25806V6.29028C12.0889 6.41125 12.1895 6.53223 12.3311 6.53223H16.3398C17.3271 6.53223 18.1133 7.33875 18.1133 8.30652V24.1936Z" transform="translate(0.161133 0.161255)" fill="#373636"/>
<path d="M0 0C0.362669 0.362903 0.604449 0.866935 0.604449 1.43145V5.46371H4.63411C5.17811 5.46371 5.68182 5.68548 6.04449 6.04839L0 0Z" transform="translate(11.8877 0.987915)" fill="#5D5C5A"/>
<path fill-rule="evenodd" clip-rule="evenodd" d="M6.10449 6.4718C6.14551 6.53223 6.22559 6.55237 6.28613 6.55237C6.38672 6.55237 6.4873 6.49194 6.54785 6.41125C6.58887 6.31042 6.56836 6.20972 6.4873 6.12903L0.443359 0.0806885C0.362305 0 0.261719 -0.0201416 0.161133 0.0201416C0.0605469 0.0604248 0 0.161255 0 0.262085C0 0.322632 0.0400391 0.403198 0.0810547 0.443604C0.422852 0.766113 0.604492 1.20972 0.604492 1.6936V5.72583C0.604492 5.8468 0.705078 5.96777 0.84668 5.96777H4.85547C5.33887 5.96777 5.7627 6.14917 6.10449 6.4718ZM4.87598 5.48389H1.1084V1.71375C1.1084 1.67334 1.10352 1.63306 1.09863 1.59277C1.09277 1.55249 1.08789 1.51221 1.08789 1.4718L5.11719 5.50403C5.03711 5.48389 4.95605 5.48389 4.87598 5.48389Z" transform="translate(11.6455 0.72583)" fill="#373636"/>
<path d="M3.26402 6.53226L0 3.26613L3.26402 0L4.11025 0.846774L1.69246 3.26613L4.11025 5.68548L3.26402 6.53226Z" transform="translate(4.59375 11.25)" fill="white"/>
<path d="M0.846228 6.53226L0 5.68548L2.41779 3.26613L0 0.846774L0.846228 0L4.11025 3.26613L0.846228 6.53226Z" transform="translate(10.2354 11.25)" fill="white"/>
</svg>
