<svg width="21" height="25" viewBox="0 0 21 25" fill="none" xmlns="http://www.w3.org/2000/svg">
<path d="M3.33333 25H1C0.447715 25 0 24.5523 0 24V1C0 0.447715 0.447715 0 1 0H3.33333V25Z" transform="translate(1.35547)" fill="#44C4A1"/>
<path d="M14.456 25H0V0H14.456C15.0083 0 15.456 0.447715 15.456 1V24C15.456 24.5523 15.0083 25 14.456 25Z" transform="translate(4.68848)" fill="#27A2DB"/>
<path d="M2 1.33333H0.666667C0.298477 1.33333 0 1.03486 0 0.666667C0 0.298477 0.298477 0 0.666667 0H2C2.36819 0 2.66667 0.298477 2.66667 0.666667C2.66667 1.03486 2.36819 1.33333 2 1.33333Z" transform="translate(0.0224609 2.23096)" fill="#E1E6E9"/>
<path d="M2 1.33333H0.666667C0.298477 1.33333 0 1.03486 0 0.666667C0 0.298477 0.298477 0 0.666667 0H2C2.36819 0 2.66667 0.298477 2.66667 0.666667C2.66667 1.03486 2.36819 1.33333 2 1.33333Z" transform="translate(0.0224609 5.43201)" fill="#E1E6E9"/>
<path d="M2 1.33333H0.666667C0.298477 1.33333 0 1.03486 0 0.666667C0 0.298477 0.298477 0 0.666667 0H2C2.36819 0 2.66667 0.298477 2.66667 0.666667C2.66667 1.03486 2.36819 1.33333 2 1.33333Z" transform="translate(0.0224609 8.63269)" fill="#E1E6E9"/>
<path d="M2 1.33333H0.666667C0.298477 1.33333 0 1.03486 0 0.666667C0 0.298477 0.298477 0 0.666667 0H2C2.36819 0 2.66667 0.298477 2.66667 0.666667C2.66667 1.03486 2.36819 1.33333 2 1.33333Z" transform="translate(0.0224609 11.8334)" fill="#E1E6E9"/>
<path d="M2 1.33333H0.666667C0.298477 1.33333 0 1.03486 0 0.666667C0 0.298477 0.298477 0 0.666667 0H2C2.36819 0 2.66667 0.298477 2.66667 0.666667C2.66667 1.03486 2.36819 1.33333 2 1.33333Z" transform="translate(0.0224609 15.0341)" fill="#E1E6E9"/>
<path d="M2 1.33333H0.666667C0.298477 1.33333 0 1.03486 0 0.666667C0 0.298477 0.298477 0 0.666667 0H2C2.36819 0 2.66667 0.298477 2.66667 0.666667C2.66667 1.03486 2.36819 1.33333 2 1.33333Z" transform="translate(0.0224609 18.2346)" fill="#E1E6E9"/>
<path d="M2 1.33333H0.666667C0.298477 1.33333 0 1.03486 0 0.666667C0 0.298477 0.298477 0 0.666667 0H2C2.36819 0 2.66667 0.298477 2.66667 0.666667C2.66667 1.03486 2.36819 1.33333 2 1.33333Z" transform="translate(0.0224609 21.4357)" fill="#E1E6E9"/>
<path d="M0 0H10.4453V4.66667H0V0Z" transform="translate(7.19434 5.43201)" fill="#E1E6E9"/>
<path d="M10.112 0V4.33333H0V4.66667H10.4453V0L10.112 0Z" transform="translate(7.19434 5.43201)" fill="#D5D6DB"/>
<path d="M5.58333 0H0.25C0.111929 0 0 0.111929 0 0.25C0 0.388071 0.111929 0.5 0.25 0.5H5.58333C5.7214 0.5 5.83333 0.388071 5.83333 0.25C5.83333 0.111929 5.7214 0 5.58333 0V0Z" transform="translate(10.0918 6.51538)" fill="#D5D6DB"/>
<path d="M5.58333 0H0.25C0.111929 0 0 0.111929 0 0.25C0 0.388071 0.111929 0.5 0.25 0.5H5.58333C5.7214 0.5 5.83333 0.388071 5.83333 0.25C5.83333 0.111929 5.7214 0 5.58333 0V0Z" transform="translate(10.0918 8.13269)" fill="#D5D6DB"/>
</svg>
