<svg width="28" height="25" viewBox="0 0 28 25" fill="none" xmlns="http://www.w3.org/2000/svg">
<path d="M24.4565 16.0239H2.71739C1.21662 16.0239 0 14.8282 0 13.3533V0V12.0179C0 13.4929 1.21662 14.6886 2.71739 14.6886H24.4565C25.9573 14.6886 27.1739 13.4929 27.1739 12.0179V13.3533C27.1739 14.8282 25.9573 16.0239 24.4565 16.0239Z" transform="translate(0 8.67969)" fill="#414A55"/>
<path fill-rule="evenodd" clip-rule="evenodd" d="M2.71777 0H10.8691C12.3701 0 13.5869 1.19568 13.5869 2.67065V16.0239C13.5869 17.4989 12.3701 18.6946 10.8691 18.6946H2.71777C1.2168 18.6946 0 17.4989 0 16.0239V2.67065C0 1.19568 1.2168 0 2.71777 0ZM10.8701 16.0239H2.71777V2.67065H10.8701V16.0239Z" transform="translate(6.79395)" fill="#D5915B"/>
<path d="M0 0V10.015C0 11.4899 1.21662 12.6856 2.71739 12.6856H24.4565C25.9573 12.6856 27.1739 11.4899 27.1739 10.015V0H0Z" transform="translate(0 10.6826)" fill="#D5915B"/>
<path fill-rule="evenodd" clip-rule="evenodd" d="M6.79395 4.67371H0V2.67065C0 1.19568 1.2168 0 2.71777 0H6.79395V4.67371ZM27.1748 4.67371H20.3809V0H24.4619C25.9609 0.00256348 27.1748 1.19751 27.1748 2.67065V4.67371ZM16.3047 2.67065C16.7812 2.66992 17.25 2.79321 17.6631 3.02783V0H9.51074V3.02783C9.91016 2.8009 10.374 2.67065 10.8691 2.67065H16.3047Z" transform="translate(0 6.00903)" fill="#3A4048"/>
<path fill-rule="evenodd" clip-rule="evenodd" d="M0 4.67371H1.44434C1.62695 3.97949 2.08594 3.38647 2.71777 3.02783V0H0V4.67371ZM12.1426 4.67371H13.5869V0H10.8691V3.02783C11.501 3.38647 11.96 3.97949 12.1426 4.67371Z" transform="translate(6.79395 6.00903)" fill="#AE7A51"/>
<path fill-rule="evenodd" clip-rule="evenodd" d="M0 1.37244H8.15234V0.686157C8.15234 0.449463 8.18164 0.219604 8.2373 0H0V1.37244ZM19.0225 1.37244H27.1738V0H18.9365C18.9922 0.219604 19.0225 0.449463 19.0225 0.686157V1.37244Z" transform="translate(0 10.6826)" fill="#AE7A51"/>
<path d="M8.15217 4.00598H2.71739C1.21662 4.00598 0 2.81029 0 1.33533V0H10.8696V1.33533C10.8696 2.81029 9.65295 4.00598 8.15217 4.00598Z" transform="translate(8.15234 12.0179)" fill="#AE7A51"/>
<path d="M8.15217 2.00299H0V0.357203C0.412944 0.122514 0.881678 -0.000715457 1.3587 3.12475e-06H6.79348C7.28872 3.12475e-06 7.75272 0.130198 8.15217 0.357203V2.00299Z" transform="translate(9.51074 8.67957)" fill="#34393E"/>
<path fill-rule="evenodd" clip-rule="evenodd" d="M0 1.64575H1.27344V0C0.641602 0.358643 0.182617 0.95166 0 1.64575ZM9.4248 1.64575H10.6982C10.5156 0.95166 10.0566 0.358643 9.4248 0V1.64575Z" transform="translate(8.2373 9.03687)" fill="#906747"/>
<path d="M10.8696 1.37242H0V0.68621C0 0.449467 0.0298913 0.219587 0.0855978 0H10.784C10.8397 0.219587 10.8696 0.449467 10.8696 0.68621V1.37242Z" transform="translate(8.15234 10.6826)" fill="#906747"/>
<path fill-rule="evenodd" clip-rule="evenodd" d="M2.71777 0H8.15234C9.65332 0 10.8691 1.19568 10.8691 2.67065V4.67371C10.8691 6.14856 9.65332 7.34436 8.15234 7.34436H2.71777C1.2168 7.34436 0 6.14856 0 4.67371V2.67065C0 1.19568 1.2168 0 2.71777 0ZM8.15234 4.67371H2.71777V2.67065H8.15234V4.67371Z" transform="translate(8.15234 7.34436)" fill="#F0CB83"/>
<path d="M27.1739 2.67065C27.1739 1.19569 25.9573 0 24.4565 0H2.71739C1.21662 0 0 1.19569 0 2.67065V6.00897H27.1739V2.67065Z" transform="translate(0 4.67371)" fill="#D5915B"/>
</svg>
